<svg width="23" height="24" viewBox="0 0 23 24" fill="none" xmlns="http://www.w3.org/2000/svg">
<path d="M18.153 3.78246H17.5605C17.2643 3.78246 17.022 3.54273 17.022 3.24972V2.66371C17.022 2.3707 17.2643 2.13097 17.5605 2.13097H18.153C18.4492 2.13097 18.6915 2.3707 18.6915 2.66371V3.24972C18.6915 3.54273 18.4492 3.78246 18.153 3.78246Z" fill="#47A8A6"/>
<path d="M14.1945 3.86238H12.902C12.7404 3.86238 12.6327 3.75583 12.6327 3.596V2.31743C12.6327 2.1576 12.7404 2.05105 12.902 2.05105H14.1945C14.3561 2.05105 14.4638 2.1576 14.4638 2.31743V3.596C14.4638 3.75583 14.3561 3.86238 14.1945 3.86238Z" fill="#47A8A6"/>
<path d="M22.1652 3.78246C21.7075 3.78246 21.3305 3.40955 21.3305 2.95672C21.3305 2.50388 21.7075 2.13097 22.1652 2.13097C22.623 2.13097 23 2.50388 23 2.95672C23 3.40955 22.623 3.78246 22.1652 3.78246Z" fill="#47A8A6"/>
<path d="M12.0403 5.99334H10.7477C10.5862 5.99334 10.4785 5.88679 10.4785 5.72697V4.44839C10.4785 4.28857 10.5862 4.18202 10.7477 4.18202H12.0403C12.2019 4.18202 12.3096 4.28857 12.3096 4.44839V5.72697C12.3096 5.88679 12.2019 5.99334 12.0403 5.99334Z" fill="#47A8A6"/>
<path d="M20.3072 5.91343H19.7148C19.4186 5.91343 19.1762 5.6737 19.1762 5.38069V4.79467C19.1762 4.50166 19.4186 4.26193 19.7148 4.26193H20.3072C20.6034 4.26193 20.8458 4.50166 20.8458 4.79467V5.38069C20.8458 5.6737 20.6034 5.91343 20.3072 5.91343Z" fill="#47A8A6"/>
<path d="M20.011 1.6515C19.5532 1.6515 19.1762 1.27858 19.1762 0.825749C19.1762 0.372919 19.5532 0 20.011 0C20.4688 0 20.8458 0.372919 20.8458 0.825749C20.8458 1.27858 20.4688 1.6515 20.011 1.6515Z" fill="#47A8A6"/>
<path d="M9.99376 8.23085H8.48579C8.32422 8.23085 8.21651 8.12431 8.21651 7.96448V6.47281C8.21651 6.31299 8.32422 6.20644 8.48579 6.20644H9.99376C10.1553 6.20644 10.263 6.31299 10.263 6.47281V7.96448C10.263 8.12431 10.1553 8.23085 9.99376 8.23085Z" fill="#47A8A6"/>
<path d="M20.3072 10.1754H19.7148C19.4186 10.1754 19.1762 9.93563 19.1762 9.64262V9.05661C19.1762 8.7636 19.4186 8.52386 19.7148 8.52386H20.3072C20.6034 8.52386 20.8458 8.7636 20.8458 9.05661V9.64262C20.8458 9.93563 20.6034 10.1754 20.3072 10.1754Z" fill="#47A8A6"/>
<path d="M16.6181 10.0954V8.65705C16.6181 8.49723 16.5103 8.39068 16.3488 8.39068H14.7869C14.6254 8.39068 14.5177 8.28413 14.5177 8.12431V6.63263C14.5177 6.47281 14.41 6.36626 14.2484 6.36626H12.8481C12.6866 6.36626 12.5788 6.47281 12.5788 6.63263V8.12431C12.5788 8.28413 12.4711 8.39068 12.3096 8.39068H10.8016C10.64 8.39068 10.5323 8.49723 10.5323 8.65705V10.0422C10.5323 10.202 10.64 10.3085 10.8016 10.3085H12.3096C12.4711 10.3085 12.5788 10.4151 12.5788 10.5749V12.1199C12.5788 12.2797 12.6866 12.3862 12.8481 12.3862H14.3022C14.4638 12.3862 14.5715 12.2797 14.5715 12.1199V10.6282C14.5715 10.4684 14.6792 10.3618 14.8408 10.3618H16.3488C16.5103 10.3618 16.6181 10.2553 16.6181 10.0954Z" fill="#47A8A6"/>
<path d="M18.503 8.12431H17.2105C17.0489 8.12431 16.9412 8.01776 16.9412 7.85794V6.57936C16.9412 6.41953 17.0489 6.31299 17.2105 6.31299H18.503C18.6646 6.31299 18.7723 6.41953 18.7723 6.57936V7.85794C18.7723 8.01776 18.6646 8.12431 18.503 8.12431Z" fill="#47A8A6"/>
<path d="M16.3488 5.9667H15.0562C14.8947 5.9667 14.7869 5.86016 14.7869 5.70033V4.42175C14.7869 4.26193 14.8947 4.15538 15.0562 4.15538H16.3488C16.5103 4.15538 16.6181 4.26193 16.6181 4.42175V5.70033C16.6181 5.86016 16.5103 5.9667 16.3488 5.9667Z" fill="#47A8A6"/>
<path d="M15.8371 18.646C15.8102 18.4329 15.891 18.2464 16.0526 18.1132C16.2411 17.9534 16.4296 17.7669 16.5911 17.6071C17.8837 16.2486 18.5838 14.4906 18.8262 12.5461H14.8947C14.7331 12.5461 14.6254 12.6526 14.6254 12.8124V14.4107C14.6254 14.5705 14.5177 14.677 14.3561 14.677H12.7404C12.5788 14.677 12.4711 14.5705 12.4711 14.4107V12.8657C12.4711 12.7059 12.3634 12.5993 12.2019 12.5993H10.5862C10.4246 12.5993 10.3169 12.4928 10.3169 12.333V10.6815C10.3169 10.5216 10.2092 10.4151 10.0476 10.4151H8.43193C8.27036 10.4151 8.16265 10.3085 8.16265 10.1487V8.5505C8.16265 8.39068 8.05494 8.28413 7.89337 8.28413H6.22383C6.06226 8.28413 5.95455 8.17758 5.95455 8.01776V6.41953C5.95455 6.25971 6.06226 6.15316 6.22383 6.15316H7.89337C8.05494 6.15316 8.16265 6.04661 8.16265 5.88679V4.23529C8.16265 4.07547 8.27036 3.96892 8.43193 3.96892H10.0476C10.2092 3.96892 10.3169 3.86237 10.3169 3.70255V2.95671C7.16631 2.85017 4.09652 3.99556 2.88476 6.79245C2.58855 7.45838 2.1577 8.92342 2.02306 9.50943C1.94227 9.85572 1.83456 10.1754 1.69992 10.495C1.296 11.4539 0.461232 12.9456 0.0573114 14.1443C-0.0773288 14.5172 0.0303834 14.9434 0.326592 15.2364C0.515088 15.3962 0.75744 15.5028 0.999793 15.5294L2.07691 15.636C2.21155 15.6626 2.37312 15.7691 2.42698 15.9023C2.42698 15.9023 3.07325 18.8058 4.47351 19.6582C4.87743 19.8979 6.22383 19.9778 6.76239 20.0044C7.00475 20.0044 7.16631 20.2175 7.16631 20.4306V24C9.15899 23.0411 12.8751 21.3896 16.0256 20.5638L15.8371 18.646Z" fill="#47A8A6"/>
</svg>
